
935 bytes → 731 bytes 78.18%
<svg width="396" height="287" fill="none" xmlns="http://www.w3.org/2000/svg"><g clip-path="url(#a)"><path fill-rule="evenodd" clip-rule="evenodd" d="M158.467.774a143.603 143.603 0 0 1 90.839 45.644l-21.994 20.195A113.752 113.752 0 0 0 77.512 51a113.646 113.646 0 0 0-44.728 66.922 113.596 113.596 0 0 0 10.831 79.749 113.692 113.692 0 0 0 60.959 52.584 113.77 113.77 0 0 0 80.517-.951 113.705 113.705 0 0 0 43.667-30.52l30.906-30.162 28.435-27.751 54.377-52.462 19.971 22.561-72.413 69.878-28.346 27.664-12.503 12.202a143.581 143.581 0 0 1-53.19 36.38 143.648 143.648 0 0 1-101.666 1.201A143.558 143.558 0 0 1 17.36 211.9 143.435 143.435 0 0 1 3.685 111.204a143.496 143.496 0 0 1 56.476-84.5A143.632 143.632 0 0 1 158.467.774Z" fill="#3DDDA3"/><path d="m396 79.725-17.472 69.411-53.586-60.534L396 79.725Z" fill="#3DDDA3"/><path d="M287.124 140.746a143.457 143.457 0 0 0-37.818-94.328l-21.994 20.195a113.613 113.613 0 0 1 29.951 74.706l2.401 47.303 28.435-27.751-.975-20.125Z" fill="url(#b)"/><path d="M261.688 286.932h29.537l-1.191-86.084-28.346 27.664v58.42Z" fill="url(#c)"/></g><defs><linearGradient id="b" x1="243.161" y1="147.276" x2="273.634" y2="193.686" gradientUnits="userSpaceOnUse"><stop stop-color="#3DDDA3"/><stop offset="1" stop-color="#217758"/></linearGradient><linearGradient id="c" x1="287.421" y1="261.105" x2="273.671" y2="197.444" gradientUnits="userSpaceOnUse"><stop stop-color="#3DDDA3"/><stop offset="1" stop-color="#217758"/></linearGradient><clipPath id="a"><path fill="#fff" d="M0 0h396v287H0z"/></clipPath></defs></svg>