<svg width="1090" height="412" viewBox="0 0 1090 412" fill="none" xmlns="http://www.w3.org/2000/svg">
<g clip-path="url(#clip0_1_2)">
<rect width="1090" height="412" fill="white"/>
<path fill-rule="evenodd" clip-rule="evenodd" d="M158.467 39.7742C193.303 43.4051 225.61 59.6382 249.306 85.4177L227.312 105.613C208.545 85.1959 182.959 72.3396 155.369 69.4641C127.779 66.5885 100.089 73.8921 77.512 90C54.9346 106.108 39.0271 129.909 32.784 156.922C26.541 183.936 30.3931 212.299 43.6151 236.671C56.8371 261.044 78.5171 279.745 104.574 289.255C130.63 298.764 159.266 298.426 185.091 288.304C201.985 281.682 216.914 271.171 228.758 257.784L259.664 227.622L288.099 199.871L342.476 147.409L362.447 169.97L290.034 239.848L261.688 267.512L249.185 279.714C234.554 295.591 216.411 308.091 195.995 316.094C163.387 328.875 127.23 329.302 94.3295 317.295C61.4289 305.287 34.0546 281.674 17.3596 250.9C0.664737 220.125 -4.19911 184.313 3.68372 150.204C11.5666 116.095 31.6523 86.0427 60.1598 65.704C88.6674 45.3653 123.63 36.1434 158.467 39.7742Z" fill="#3DDDA3"/>
<path d="M396 118.726L378.528 188.136L324.942 127.602L396 118.726Z" fill="#3DDDA3"/>
<path d="M287.124 179.746C286.452 144.745 273.002 111.197 249.306 85.4177L227.312 105.613C246.079 126.03 256.731 152.599 257.263 180.319L259.664 227.622L288.099 199.871L287.124 179.746Z" fill="url(#paint0_linear_1_2)"/>
<path d="M261.688 325.932H291.225L290.034 239.848L261.688 267.512V325.932Z" fill="url(#paint1_linear_1_2)"/>
<path d="M1089.79 186.4C1089.79 193.333 1089.39 200.667 1088.59 208.4H913.387C914.721 230 922.054 246.933 935.387 259.2C948.987 271.2 965.387 277.2 984.587 277.2C1000.32 277.2 1013.39 273.6 1023.79 266.4C1034.45 258.933 1041.92 249.067 1046.19 236.8H1085.39C1079.52 257.867 1067.79 275.067 1050.19 288.4C1032.59 301.467 1010.72 308 984.587 308C963.787 308 945.121 303.333 928.587 294C912.321 284.667 899.521 271.467 890.187 254.4C880.854 237.067 876.187 217.067 876.187 194.4C876.187 171.733 880.721 151.867 889.787 134.8C898.854 117.733 911.521 104.667 927.787 95.6C944.321 86.2667 963.254 81.6 984.587 81.6C1005.39 81.6 1023.79 86.1333 1039.79 95.2C1055.79 104.267 1068.05 116.8 1076.59 132.8C1085.39 148.533 1089.79 166.4 1089.79 186.4ZM1052.19 178.8C1052.19 164.933 1049.12 153.067 1042.99 143.2C1036.85 133.067 1028.45 125.467 1017.79 120.4C1007.39 115.067 995.787 112.4 982.987 112.4C964.587 112.4 948.854 118.267 935.787 130C922.987 141.733 915.654 158 913.787 178.8H1052.19Z" fill="#343354"/>
<path d="M827.75 8.40002V304.4H791.35V8.40002H827.75Z" fill="#343354"/>
<path d="M711.713 49.6C704.779 49.6 698.913 47.2 694.113 42.4C689.313 37.6 686.913 31.7333 686.913 24.8C686.913 17.8667 689.313 12 694.113 7.2C698.913 2.4 704.779 0 711.713 0C718.379 0 723.979 2.4 728.513 7.2C733.313 12 735.713 17.8667 735.713 24.8C735.713 31.7333 733.313 37.6 728.513 42.4C723.979 47.2 718.379 49.6 711.713 49.6ZM729.313 85.2V304.4H692.913V85.2H729.313Z" fill="#343354"/>
<path d="M513 81.6C531.933 81.6 548.467 85.7333 562.6 94C577 102.267 587.667 112.667 594.6 125.2V85.2H631.4V309.2C631.4 329.2 627.133 346.933 618.6 362.4C610.067 378.133 597.8 390.4 581.8 399.2C566.067 408 547.667 412.4 526.6 412.4C497.8 412.4 473.8 405.6 454.6 392C435.4 378.4 424.067 359.867 420.6 336.4H456.6C460.6 349.733 468.867 360.4 481.4 368.4C493.933 376.667 509 380.8 526.6 380.8C546.6 380.8 562.867 374.533 575.4 362C588.2 349.467 594.6 331.867 594.6 309.2V263.2C587.4 276 576.733 286.667 562.6 295.2C548.467 303.733 531.933 308 513 308C493.533 308 475.8 303.2 459.8 293.6C444.067 284 431.667 270.533 422.6 253.2C413.533 235.867 409 216.133 409 194C409 171.6 413.533 152 422.6 135.2C431.667 118.133 444.067 104.933 459.8 95.6C475.8 86.2667 493.533 81.6 513 81.6ZM594.6 194.4C594.6 177.867 591.267 163.467 584.6 151.2C577.933 138.933 568.867 129.6 557.4 123.2C546.2 116.533 533.8 113.2 520.2 113.2C506.6 113.2 494.2 116.4 483 122.8C471.8 129.2 462.867 138.533 456.2 150.8C449.533 163.067 446.2 177.467 446.2 194C446.2 210.8 449.533 225.467 456.2 238C462.867 250.267 471.8 259.733 483 266.4C494.2 272.8 506.6 276 520.2 276C533.8 276 546.2 272.8 557.4 266.4C568.867 259.733 577.933 250.267 584.6 238C591.267 225.467 594.6 210.933 594.6 194.4Z" fill="#343354"/>
</g>
<defs>
<linearGradient id="paint0_linear_1_2" x1="243.161" y1="186.276" x2="273.634" y2="232.686" gradientUnits="userSpaceOnUse">
<stop stop-color="#3DDDA3"/>
<stop offset="1" stop-color="#217758"/>
</linearGradient>
<linearGradient id="paint1_linear_1_2" x1="287.421" y1="300.105" x2="273.671" y2="236.444" gradientUnits="userSpaceOnUse">
<stop stop-color="#3DDDA3"/>
<stop offset="1" stop-color="#217758"/>
</linearGradient>
<clipPath id="clip0_1_2">
<rect width="1090" height="412" fill="white"/>
</clipPath>
</defs>
</svg>
